<svg xmlns="http://www.w3.org/2000/svg" width="140.078" height="140.078" viewBox="0 0 140.078 140.078"><defs><style>.a,.b{fill:#ececec;}.b{stroke:#000;stroke-miterlimit:10;stroke-width:6px;}.c{fill:#878787;stroke:#707070;stroke-width:0.5px;fill-rule:evenodd;}</style></defs><ellipse class="a" cx="61.048" cy="61.048" rx="61.048" ry="61.048" transform="matrix(0.16, -0.987, 0.987, 0.16, 0, 120.52)"/><path class="b" d="M329.714,243.571" transform="translate(-228.816 -199.696)"/><g transform="translate(-203.337 -184.588)"><path class="c" d="M286.286,279.078c-.412,3.942-1.8,5.342-5.955,5.955-.072.482-.14,1-.227,1.513a5.291,5.291,0,0,1-7.342,3.923,2.458,2.458,0,0,0-2.036-.13,5.179,5.179,0,0,1-6.725-4.7c-.027-.3,0-.6,0-1.029a5.924,5.924,0,0,1-4.5-1.558,5.563,5.563,0,0,1-1.525-4.455,5.865,5.865,0,0,1-4.472-1.537,5.412,5.412,0,0,1-1.577-4.325c-5.946-1.367-7.5-4.387-4.579-9.382-.781-.683-1.664-1.4-2.479-2.182s-1.569-1.645-2.452-2.581l-3.79,4.213-4.7-5.028,1.5-1.608c.738.876,1.439,1.671,2.1,2.5.543.683.954.6,1.551,0q8.733-8.8,17.516-17.548c1.773-1.772,3.556-3.534,5.362-5.328l-15.672-15.6,1.52-1.577,17.385,17.436-2.709,2.179c1.095,1.018,1.959,1.871,2.886,2.65a1.758,1.758,0,0,0,1.055.277c4.992.017,9.984,0,14.975.018,1.487,0,1.853-1.389,3.04-2.152L281,236.1l17.529-17.513,1.189,1.539-15.579,15.425,23.809,23.8,2.7-2.545,1.258,1.587-4.263,4.254-3.245-3.874-6.527,6.952c.9,4.232-.515,6.212-5.533,7.31C291.212,277.659,290.7,278.173,286.286,279.078Zm-11.57-1.55c1.376,1.438,2.661,2.843,4.023,4.168a3.36,3.36,0,0,0,1.565.825,2.9,2.9,0,0,0,3.2-1.461,3.142,3.142,0,0,0-.448-3.617c-1.353-1.384-2.774-2.7-4.1-3.98l1.68-1.955c.68.771,1.264,1.472,1.892,2.132.655.69,1.371,1.321,2.025,2.012a3.112,3.112,0,0,0,4.636-.164A3.238,3.238,0,0,0,288.63,271c-1.285-1.178-2.494-2.44-3.707-3.635l1.543-1.655c.323.3.579.523.819.762.917.915,1.877,1.793,2.731,2.763a3.362,3.362,0,0,0,4.829.581c1.4-1.281,1.333-3.233-.168-4.732-3.72-3.715-7.434-7.437-11.183-11.123a2.284,2.284,0,0,0-1.379-.587c-1.6-.074-3.2-.013-4.8-.041a3.807,3.807,0,0,0-2.947,1.257c-1.24,1.291-2.508,2.556-3.781,3.814A7.263,7.263,0,0,1,263.9,260.5c-2.723-.461-4.215-2.532-6.076-4.367l12.275-12.37a42.744,42.744,0,0,0-4.624-.265,2.088,2.088,0,0,1-1.274-.518c-1.024-1-1.966-2.091-2.788-2.98l-17.327,17.249c1.561,1.526,3.172,3.14,4.841,4.69a1.556,1.556,0,0,0,1.144.17,5.073,5.073,0,0,1,6.239,5.034c.024.574.142.91.85.882a4.6,4.6,0,0,1,4.277,2.388,21.675,21.675,0,0,1,1.383,3.6,5.281,5.281,0,0,1,4.161,1.577,5.578,5.578,0,0,1,1.532,4.376c2.286.027,4.1.722,5.27,2.634a5.525,5.525,0,0,1-.059,5.708,2.9,2.9,0,0,0,3.863-1.4,3.16,3.16,0,0,0-.807-3.847c-1.254-1.265-2.582-2.455-3.977-3.771Zm21.4-14.016,6.236-6.1L285.6,240.664c-.469.575-1.011,1.212-1.524,1.872a2.62,2.62,0,0,1-2.373,1.013q-3.54-.11-7.085.009a2.723,2.723,0,0,0-1.678.686c-3.48,3.414-6.908,6.882-10.346,10.338-.5.5-.967,1.028-1.432,1.524,2.125,2.717,5.4,2.975,7.749.694,1.392-1.354,2.656-2.858,4.158-4.072a6.805,6.805,0,0,1,3.31-1.53,55.969,55.969,0,0,1,6.961-.086,1.942,1.942,0,0,1,1.148.595q3.028,2.951,5.993,5.965C292.4,259.623,294.283,261.608,296.117,263.511Zm-36.011,9.616a3.036,3.036,0,0,0-2.981-2.9,2.894,2.894,0,0,0-2.879,3.029,2.858,2.858,0,0,0,2.746,3.025A2.961,2.961,0,0,0,260.106,273.127ZM266.2,279.3a3.061,3.061,0,0,0-2.969-3.009,3.13,3.13,0,0,0-2.982,3.017,2.975,2.975,0,1,0,5.951-.008Zm-12.1-12.1a2.964,2.964,0,0,0-5.926.131,2.964,2.964,0,1,0,5.926-.131Zm15.181,15.158a2.964,2.964,0,0,0-.023,5.929,2.964,2.964,0,0,0,.023-5.929Z"/><path class="c" d="M552.019,362.623l1.542,1.41-1.648,1.495-1.679-1.587Z" transform="translate(-243.973 -111.097)"/><path class="c" d="M248.352,363.534l-1.736,1.549-1.565-1.47,1.936-1.593Z" transform="translate(-8.58 -110.632)"/></g></svg>