<svg xmlns="http://www.w3.org/2000/svg" width="140.078" height="140.078" viewBox="0 0 140.078 140.078"><defs><style>.a{fill:#fe0;}.b,.c{fill:none;stroke:#000;}.b{stroke-miterlimit:10;stroke-width:6px;}.c{stroke-linecap:round;stroke-linejoin:round;stroke-width:3px;}</style></defs><g transform="translate(-183 -2813)"><g transform="translate(183 2813)"><ellipse class="a" cx="61.048" cy="61.048" rx="61.048" ry="61.048" transform="matrix(0.16, -0.987, 0.987, 0.16, 0, 120.52)"/><path class="b" d="M329.714,243.571" transform="translate(-228.816 -199.696)"/></g><g transform="translate(187.597 2332)"><path class="c" d="M76.089,549.761a9.449,9.449,0,1,1-9.449-9.448A9.45,9.45,0,0,1,76.089,549.761Z" transform="translate(-3.315 -2.492)"/><path class="c" d="M82.819,582.159a7.436,7.436,0,0,1-7.435,7.436H55.556a7.436,7.436,0,0,1-7.435-7.436l1.239-10.223A7.437,7.437,0,0,1,56.8,564.5H74.145a7.436,7.436,0,0,1,7.435,7.435Z" transform="translate(-2.145 -5.613)"/><path class="c" d="M62.26,564.5l4.957,5.577,4.957-5.267" transform="translate(-3.969 -5.613)"/><path class="c" d="M67.355,570.9l-.348,1.136-3.68,10.017,4.027,5.267,4.027-5.267Z" transform="translate(-4.107 -6.439)"/><path class="c" d="M57.636,548.253s7.745-4.027,12.392-2.789,7.435,1.239,8.055-1.239" transform="translate(-3.372 -2.997)"/><path class="c" d="M100.306,578.048A10.452,10.452,0,0,1,89.855,588.5h-47.9A10.452,10.452,0,0,1,31.5,578.048v-46.6A10.452,10.452,0,0,1,41.952,521h47.9a10.452,10.452,0,0,1,10.452,10.452Z" transform="translate(0)"/><line class="c" y1="18.29" transform="translate(51.097 521)"/><path class="c" d="M73,533H91.29v33.532h14.371" transform="translate(-5.355 -1.548)"/><line class="c" x2="15.242" transform="translate(31.935 555.839)"/><line class="c" y2="16.548" transform="translate(89.855 571.952)"/></g></g></svg>