<svg xmlns="http://www.w3.org/2000/svg" width="140.078" height="140.078" viewBox="0 0 140.078 140.078"><defs><style>.a,.b{fill:#eee;}.b{stroke:#000;stroke-width:6px;}.b,.d{stroke-miterlimit:10;}.c{fill:none;stroke-linecap:round;stroke-linejoin:round;stroke-width:3px;}.c,.d{stroke:#878787;}.d{fill:#878787;}</style></defs><g transform="translate(-587 -2813)"><g transform="translate(587 2813)"><ellipse class="a" cx="61.048" cy="61.048" rx="61.048" ry="61.048" transform="matrix(0.16, -0.987, 0.987, 0.16, 0, 120.52)"/><path class="b" d="M329.714,243.571" transform="translate(-228.816 -199.696)"/></g><g transform="translate(474.875 2328)"><circle class="c" cx="15.25" cy="15.25" r="15.25" transform="translate(166.875 518)"/><path class="c" d="M210.125,580.5a12,12,0,0,1-12,12h-32a12,12,0,0,1-12-12l2-16.5a12,12,0,0,1,12-12h28a12,12,0,0,1,12,12Z"/><path class="c" d="M174,552l8,9,8-8.5"/><path class="c" d="M182,561l-.561,1.834L175.5,579l6.5,8.5,6.5-8.5Z"/><path class="d" d="M181.423,542.126v-2.12a6.133,6.133,0,0,1-3.213-.924l.5-1.407a5.6,5.6,0,0,0,3.024.9c1.49,0,2.5-.861,2.5-2.058,0-1.155-.819-1.869-2.372-2.5-2.142-.84-3.465-1.806-3.465-3.633a3.444,3.444,0,0,1,3.171-3.38v-2.12h1.3v2.036a5.6,5.6,0,0,1,2.729.735l-.525,1.385a5.077,5.077,0,0,0-2.645-.713c-1.617,0-2.226.965-2.226,1.805,0,1.091.777,1.638,2.6,2.394,2.162.881,3.254,1.973,3.254,3.842a3.652,3.652,0,0,1-3.317,3.569v2.184Z"/><line class="c" x1="3" y2="22.5" transform="translate(162 567.5)"/><line class="c" x2="4.5" y2="25.5" transform="translate(197.5 566.5)"/></g></g></svg>