<svg xmlns="http://www.w3.org/2000/svg" width="83.24" height="20.34" viewBox="0 0 83.24 20.34"><g transform="translate(-178.987 -139.725)"><g transform="translate(198.838 139.974)"><path d="M302.574,161.241A10.044,10.044,0,1,1,312.619,151.2,10.055,10.055,0,0,1,302.574,161.241Zm0-15.47A5.426,5.426,0,1,0,308,151.2,5.432,5.432,0,0,0,302.574,145.77Z" transform="translate(-292.53 -141.152)"/></g><g transform="translate(178.987 140.063)"><line y2="20.002" transform="translate(2.309)"/><rect width="4.618" height="20.002" transform="translate(0)"/></g><g transform="translate(183.664 139.725)"><path d="M216.044,160.033,205.737,149.85l10.939-10.126,3.137,3.389-7.395,6.845,6.872,6.789Z" transform="translate(-205.737 -139.725)"/></g><g transform="translate(242.139 139.974)"><path d="M550.246,161.241A10.044,10.044,0,1,1,560.29,151.2,10.056,10.056,0,0,1,550.246,161.241Zm0-15.47a5.426,5.426,0,1,0,5.426,5.426A5.432,5.432,0,0,0,550.246,145.77Z" transform="translate(-540.202 -141.152)"/></g><g transform="translate(222.288 140.063)"><line y2="20.002" transform="translate(2.309)"/><rect width="4.618" height="20.002"/></g><g transform="translate(226.965 139.725)"><path d="M463.717,160.033,453.41,149.85l10.938-10.126,3.137,3.389-7.395,6.845,6.872,6.789Z" transform="translate(-453.41 -139.725)"/></g></g></svg>