<svg xmlns="http://www.w3.org/2000/svg" width="86.397" height="86.215" viewBox="0 0 86.397 86.215"><defs><style>.a{fill:#fff;}.a,.c{stroke:#000;stroke-miterlimit:10;stroke-width:3px;}.b{fill:#fe0;}.c{fill:none;}</style></defs><g transform="translate(-365.945 -966.041)"><g transform="translate(367.448 967.542)"><path class="a" d="M817.746,1504.613a9.482,9.482,0,0,1-8.831,10.089l-14.757.982a9.48,9.48,0,0,1-10.089-8.83l-3.122-46.921a9.481,9.481,0,0,1,8.831-10.089l14.757-.982a9.48,9.48,0,0,1,10.089,8.831Z" transform="translate(-780.926 -1443.079)"/><path class="b" d="M870.531,1530c-7.208,1.5-7.441,7.051-10.238,12.893-2.531,5.287-5.482,11.917-6.069,17.826-.541,5.443-1.81,14.629,4.635,16.986,3.73,1.364,8.03-.6,11.672-1.45,3.446-.806,6.719-.708,10.239-1.128,4.245-.506,8.252-2.963,12.439-4.171,3.625-1.047,7.144-2.225,10.694-3.424,6.98-2.357,4.741-7.892,3.54-13.768" transform="translate(-826.134 -1493.461)"/><path class="c" d="M894.609,1434.16c-4.589,1.106-6.148,9.029-6.022,13.155.152,5.006,1.778,9.646,1.159,14.729-1.252,10.28-14.13,25.971-6.312,35.727,7.476,9.329,25.519,6.263,34.492,1.272,12.826-7.134,8.662-18.133,3.3-28.886-3.071-6.162-5.306-12.63-8.172-18.872a42.177,42.177,0,0,0-5.043-8.411c-3.416-4.377-7.172-11.147-13.785-8.714" transform="translate(-843.006 -1433.647)"/><path class="c" d="M895.1,1451c-6.9,1.338-7.429,22.33-.443,23.955-.044.48.15.512.443.7" transform="translate(-848.429 -1444.419)"/><path class="c" d="M852.094,1523.359c-2.784-2.669-6.761-4.254-10.4-5.312a22.048,22.048,0,0,0-7.938-1.123c-3.216.385-4.595,5.649-2.8,8.613.762,1.26,3.561,3,4.741,4.362a45.529,45.529,0,0,0,8.683,7.944,2.6,2.6,0,0,1-.625-.833" transform="translate(-811.489 -1485.302)"/></g><rect class="b" width="19.341" height="19.341" rx="5" transform="matrix(0.998, -0.07, 0.07, 0.998, 375.532, 978.238)"/><g transform="matrix(0.998, -0.07, 0.07, 0.998, 379.074, 985.735)"><g transform="translate(3.35 0.042)"><path d="M1.695,3.39A1.695,1.695,0,1,1,3.39,1.695,1.7,1.7,0,0,1,1.695,3.39Zm0-2.611a.916.916,0,1,0,.916.916A.917.917,0,0,0,1.695.779Z" transform="translate(0 0)"/></g><g transform="translate(0 0.057)"><line y2="3.375" transform="translate(0.39 0)"/><rect width="0.779" height="3.375"/></g><g transform="translate(0.789 0)"><path d="M1.739,3.427,0,1.709,1.846,0l.529.572L1.127,1.727l1.16,1.146Z" transform="translate(0 0)"/></g><g transform="translate(10.657 0.042)"><path d="M1.695,3.39A1.695,1.695,0,1,1,3.39,1.695,1.7,1.7,0,0,1,1.695,3.39Zm0-2.611a.916.916,0,1,0,.916.916A.917.917,0,0,0,1.695.779Z" transform="translate(0 0)"/></g><g transform="translate(7.307 0.057)"><line y2="3.375" transform="translate(0.39 0)"/><rect width="0.779" height="3.375"/></g><g transform="translate(8.096 0)"><path d="M1.739,3.427,0,1.709,1.846,0l.529.572L1.127,1.727l1.16,1.146Z" transform="translate(0 0)"/></g></g></g></svg>