<svg xmlns="http://www.w3.org/2000/svg" width="80.748" height="104.637" viewBox="0 0 80.748 104.637"><defs><style>.a,.d{fill:#fff;}.a,.c,.d{stroke:#000;}.a{stroke-miterlimit:10;stroke-width:3px;}.b{fill:#fe0;}.c{fill:none;}.c,.d{stroke-linecap:round;stroke-linejoin:round;stroke-width:2px;}</style></defs><g transform="translate(-940.099 -993.354)"><g transform="translate(941.775 995.03)"><g transform="translate(0)"><ellipse class="a" cx="34.635" cy="34.635" rx="34.635" ry="34.635" transform="translate(0 68.725) rotate(-82.809)"/><path class="b" d="M5.619,0H41.991A5.619,5.619,0,0,1,47.61,5.619v0a5.618,5.618,0,0,1-5.618,5.618H5.619A5.619,5.619,0,0,1,0,5.619v0A5.619,5.619,0,0,1,5.619,0Z" transform="translate(15.698 16.808)"/><path class="a" d="M1201.495,1613.4a2.708,2.708,0,0,1-1.168,3.647l-5.818,2.995a2.707,2.707,0,0,1-3.646-1.168L1179.089,1596a2.707,2.707,0,0,1,1.168-3.646l5.818-3a2.707,2.707,0,0,1,3.646,1.168Z" transform="translate(-1124.997 -1518.891)"/></g><g transform="translate(28.503 20.291)"><g transform="translate(5.504 0.069)"><path d="M295.315,146.722a2.785,2.785,0,1,1,2.785-2.785A2.788,2.788,0,0,1,295.315,146.722Zm0-4.289a1.5,1.5,0,1,0,1.5,1.5A1.506,1.506,0,0,0,295.315,142.433Z" transform="translate(-292.53 -141.152)"/></g><g transform="translate(0 0.094)"><line y2="5.546" transform="translate(0.64)"/><rect width="1.281" height="5.546"/></g><g transform="translate(1.297)"><path d="M208.6,145.356l-2.858-2.823,3.033-2.808.87.94-2.05,1.9,1.905,1.882Z" transform="translate(-205.737 -139.725)"/></g><g transform="translate(17.51 0.069)"><path d="M542.987,146.722a2.785,2.785,0,1,1,2.785-2.785A2.788,2.788,0,0,1,542.987,146.722Zm0-4.289a1.5,1.5,0,1,0,1.5,1.5A1.506,1.506,0,0,0,542.987,142.433Z" transform="translate(-540.202 -141.152)"/></g><g transform="translate(12.006 0.094)"><line y2="5.546" transform="translate(0.64)"/><rect width="1.28" height="5.546"/></g><g transform="translate(13.303)"><path d="M456.268,145.356l-2.858-2.823,3.033-2.808.87.94-2.05,1.9,1.905,1.882Z" transform="translate(-453.41 -139.725)"/></g></g></g><g transform="translate(819.069 903.876)"><rect class="c" width="36.896" height="19.238" transform="translate(143.922 131.579)"/><rect class="c" width="22.401" height="14.495" transform="translate(149.193 136.059)"/><g transform="translate(137.706 119.965)"><path class="d" d="M145.644,129.737a3.969,3.969,0,0,1-7.938,0l7.684-9.772h32.525l8.328,9.772a3.969,3.969,0,1,1-7.937,0" transform="translate(-137.706 -119.965)"/><path class="d" d="M156.022,120.5l-2.762,9.49a3.969,3.969,0,0,0,7.938,0" transform="translate(-145.062 -120.218)"/><path class="d" d="M168.5,120l.035,9.754a3.969,3.969,0,1,0,7.938,0" transform="translate(-152.269 -119.982)"/><path class="d" d="M182.5,120.5l.724,9.49a3.969,3.969,0,1,0,7.938,0" transform="translate(-158.89 -120.218)"/><path class="d" d="M201.507,120.264l4.473,9.49a3.969,3.969,0,1,1-7.938,0L196.5,120" transform="translate(-165.511 -119.982)"/></g></g></g></svg>