<svg xmlns="http://www.w3.org/2000/svg" width="120" height="66.444" viewBox="0 0 120 66.444"><defs><style>.a{fill:#fe0;}.a,.b{stroke:#000;stroke-miterlimit:10;stroke-width:3px;}.b{fill:none;}</style></defs><g transform="translate(-1019 -1256.5)"><g transform="translate(1019.209 1258.079)"><path class="a" d="M248.451,148.763c1.135,2.884-.567,6.253-3.8,7.525l-10.734,4.223c-3.233,1.272-6.774-.035-7.909-2.919l-11.47-29.154c-1.135-2.884.567-6.253,3.8-7.526l10.734-4.223c3.233-1.271,6.774.035,7.909,2.919Z" transform="translate(-180.538 -97.653)"/><line class="a" x2="120" transform="translate(-0.209 9.921)"/><line class="a" x2="18" y2="45" transform="translate(15.791 10.921)"/><line class="a" x2="18" y2="45" transform="translate(62.791 10.921)"/><line class="a" x2="18" y2="45" transform="translate(98.791 10.921)"/><line class="a" x2="120" transform="translate(-0.209 -0.079)"/><path class="b" d="M236.848,154.366l4.158,4,6.794-8.509" transform="translate(-191.318 -113.661)"/></g></g></svg>