<svg xmlns="http://www.w3.org/2000/svg" width="77.436" height="100.5" viewBox="0 0 77.436 100.5"><defs><style>.a{fill:none;}.a,.b,.c{stroke:#000;stroke-linecap:round;stroke-linejoin:round;stroke-width:3px;}.b{fill:#fe0;}.c{fill:#fff;}</style></defs><g transform="translate(-355 -166.5)"><path class="a" d="M422.024,213.758H356.5l13.1,31.452h53.468V186.5h7.863" transform="translate(0 0.895)"/><circle class="a" cx="7.077" cy="7.077" r="7.077" transform="translate(376.419 251.347)"/><circle class="a" cx="7.077" cy="7.077" r="7.077" transform="translate(407.347 251.347)"/><line class="a" x2="60.282" transform="translate(362.266 224.613)"/><path class="b" d="M361.924,196.314l2.707,8.459,6.768-2.368,3.723,10.829,22.673-.676-4.739-16.582,6.768-1.353-1.692-7.783-14.552-.339s-.677,10.829-9.475,4.738Z" transform="translate(0.262 0.895)"/><circle class="c" cx="11.794" cy="11.794" r="11.794" transform="translate(391.359 168)"/><g transform="translate(396.601 173.242)"><line class="a" x2="13.105" transform="translate(0 6.552)"/><line class="a" y2="13.105" transform="translate(6.552)"/></g><line class="a" x1="4.718" y2="15.202" transform="translate(406.823 198.927)"/></g></svg>