<svg xmlns="http://www.w3.org/2000/svg" width="79.572" height="93.417" viewBox="0 0 79.572 93.417"><defs><style>.a{fill:none;}.a,.b{stroke:#000;stroke-miterlimit:10;stroke-width:3px;}.b{fill:#fe0;}.c{fill-rule:evenodd;}</style></defs><g transform="translate(-167 -300.833)"><rect class="a" width="52.794" height="90.417" rx="12" transform="translate(179.183 302.333)"/><path class="b" d="M10.019,0h10.9A10.018,10.018,0,0,1,30.937,10.018V36.176A10.019,10.019,0,0,1,20.919,46.195h-10.9A10.018,10.018,0,0,1,0,36.177V10.019A10.019,10.019,0,0,1,10.019,0Z" transform="translate(189.604 311.888)"/><g transform="translate(199.983 328.004)"><path class="c" d="M215.733,344.116h-4.922a1.026,1.026,0,0,1-.216-.017.312.312,0,0,1-.261-.293c-.008-.444-.01-.889,0-1.333a.317.317,0,0,1,.3-.3,1.636,1.636,0,0,1,.2-.011h4.7l.033-.034a5.155,5.155,0,0,0-.348-.449,2.721,2.721,0,0,0-1.387-.705,6.744,6.744,0,0,0-1.514-.144c-.5,0-1.008,0-1.512,0-.35,0-.485-.136-.486-.487q0-.688,0-1.376c0-.333.131-.464.46-.464h9.644c.332,0,.468.13.469.457q0,.524,0,1.048c0,.321-.136.452-.458.453-.822,0-1.644,0-2.466,0h-.19c.031.055.049.093.072.127a3.891,3.891,0,0,1,.628,1.422c.026.119.075.157.2.155.586-.007,1.171,0,1.757,0,.354,0,.477.122.477.473s0,.69,0,1.035c0,.318-.131.447-.446.449-.59,0-1.18,0-1.77,0-.1,0-.149.019-.17.133a4.347,4.347,0,0,1-1.505,2.64,5.5,5.5,0,0,1-2.435,1.151c-.257.056-.517.1-.792.15.024.032.046.062.07.09,1.242,1.428,2.489,2.852,3.725,4.287.536.623,1.047,1.266,1.57,1.9a.366.366,0,0,1,.084.435.4.4,0,0,1-.4.222q-1.1,0-2.193,0a.459.459,0,0,1-.378-.175c-1.066-1.257-2.124-2.52-3.206-3.764-.825-.949-1.675-1.876-2.523-2.805a.767.767,0,0,1-.23-.583c.015-.381,0-.762,0-1.144,0-.439.11-.546.544-.551.626-.007,1.253,0,1.878-.036a4.1,4.1,0,0,0,1.965-.579A2.262,2.262,0,0,0,215.733,344.116Z" transform="translate(-210.316 -338.499)"/></g><path class="a" d="M258.26,388.709H216l12.626,12.626" transform="translate(-11.689 -22.472)"/><path class="a" d="M167,406.439h41.5l-11.47-11.47" transform="translate(0 -23.966)"/></g></svg>