<svg xmlns="http://www.w3.org/2000/svg" width="89.41" height="99.084" viewBox="0 0 89.41 99.084"><defs><style>.a,.b{fill:#fff;}.a,.b,.c{stroke:#000;stroke-miterlimit:10;stroke-width:3px;}.b{stroke-linecap:round;}.c{fill:#fe0;fill-rule:evenodd;}</style></defs><g transform="translate(-261.908 -1241.403)"><g transform="translate(-25 -386)"><g transform="translate(314.091 1622) rotate(17)"><path class="a" d="M67.821,36.332c0,15.049-8.541,27.962-20.711,33.478-4.057,1.838-8.517.595-13.2.595-3.8,0-7.451,1.59-10.861.357C9.648,65.91,0,52.328,0,36.332,0,16.266,15.182,0,33.911,0S67.821,16.266,67.821,36.332Z" transform="translate(0 15.402)"/><path class="a" d="M17.225,5.545c0,2.347-3.855,4.251-8.612,4.251S0,7.892,0,5.545,3.855,0,8.613,0,17.225,3.2,17.225,5.545Z" transform="translate(25.837 15.563)"/><path class="a" d="M10.109,6.684c-.7,1.272-3.5,1.072-6.244-.445S-.541,2.463.161,1.192,4.045-.58,6.792.937,10.812,5.413,10.109,6.684Z" transform="translate(40.319 15.134)"/><path class="a" d="M9.763.907c.684,1.129-.9,3.345-3.548,4.948S.873,7.843.188,6.713s.527-3.967,3.171-5.57S9.078-.223,9.763.907Z" transform="translate(19.032 14.88)"/><path class="b" d="M0,10.917,3.516,3.632,6.728,4.773,9.993,0" transform="translate(37.123 4.898)"/><path class="b" d="M13.816,0S19.341,22.1,0,37.678" transform="translate(46.667 41.938)"/><line class="b" x2="7.428" y2="15.563" transform="translate(27.021 0)"/></g><path class="c" d="M106.861,5.134l5.871,11.9,13.129,1.908-9.5,9.26L118.6,41.274,106.861,35.1,95.119,41.274,97.361,28.2l-9.5-9.26L100.99,17.03Z" transform="translate(223.481 1655.866)"/></g></g></svg>