<svg xmlns="http://www.w3.org/2000/svg" width="24" height="17.455" viewBox="0 0 24 17.455"><defs><style>.a{fill:#878787;}.b{fill:#8e8e8e;}</style></defs><g transform="translate(-148 -6363)"><path class="a" d="M23.455,6H.545A.545.545,0,0,0,0,6.545V22.909a.545.545,0,0,0,.545.545H23.455A.545.545,0,0,0,24,22.909V6.545A.545.545,0,0,0,23.455,6Zm-.545,15.044-6.757-6.757-.771.771,7.3,7.3H1.315l7.3-7.3-.771-.771L1.091,21.044V7.091H22.909Z" transform="translate(148 6357)"/><path class="b" d="M22.888,8,13,16.989,3.112,8H2v.4L12.611,18.05a.589.589,0,0,0,.778,0L24,8.4V8Z" transform="translate(147 6356)"/></g></svg>