<svg xmlns="http://www.w3.org/2000/svg" width="506.844" height="155.347" viewBox="0 0 506.844 155.347"><g transform="translate(-329.937 -91.771)"><g transform="translate(330 97.258)"><g transform="translate(119.593 1.503)"><path d="M353.041,262.176a60.512,60.512,0,1,1,60.513-60.511A60.579,60.579,0,0,1,353.041,262.176Zm0-93.2a32.689,32.689,0,1,0,32.69,32.69A32.725,32.725,0,0,0,353.041,168.975Z" transform="translate(-292.53 -141.152)"/></g><g transform="translate(0 2.037)"><line y2="120.502" transform="translate(13.911)"/><rect width="27.823" height="120.502"/></g><g transform="translate(28.176)"><path d="M267.832,262.075l-62.095-61.346,65.9-61,18.9,20.418-44.55,41.24,41.4,40.9Z" transform="translate(-205.737 -139.725)"/></g><g transform="translate(380.46 1.503)"><path d="M600.713,262.176a60.512,60.512,0,1,1,60.512-60.511A60.58,60.58,0,0,1,600.713,262.176Zm0-93.2a32.689,32.689,0,1,0,32.69,32.69A32.726,32.726,0,0,0,600.713,168.975Z" transform="translate(-540.202 -141.152)"/></g><g transform="translate(260.868 2.037)"><line y2="120.502" transform="translate(13.912)"/><rect width="27.822" height="120.502"/></g><g transform="translate(289.044)"><path d="M515.5,262.075,453.41,200.728l65.9-61,18.9,20.418-44.549,41.24,41.4,40.9Z" transform="translate(-453.41 -139.725)"/></g></g><g transform="translate(329.937 235.523)"><path d="M26.211.117a7.678,7.678,0,0,1-1.59-.164,6.817,6.817,0,0,1-1.461-.48,5.6,5.6,0,0,1-1.223-.762h0l.992-1.766h0a4.806,4.806,0,0,0,1.516.832,5.435,5.435,0,0,0,1.766.293,3.109,3.109,0,0,0,1.625-.355,1.118,1.118,0,0,0,.578-1V-3.3a.988.988,0,0,0-.258-.719,1.532,1.532,0,0,0-.672-.391,8.141,8.141,0,0,0-1.062-.227.137.137,0,0,0-.043-.008.137.137,0,0,1-.043-.008l-.172-.023a10.557,10.557,0,0,1-1.891-.449A2.783,2.783,0,0,1,23-6.066a3.073,3.073,0,0,1-.523-1.918v-.008a3.461,3.461,0,0,1,.492-1.883,3.106,3.106,0,0,1,1.43-1.191,5.636,5.636,0,0,1,2.266-.41,5.768,5.768,0,0,1,1.246.141,6.762,6.762,0,0,1,1.246.406,6.952,6.952,0,0,1,1.156.641h0l-.906,1.813h0a5.747,5.747,0,0,0-1.371-.7,4.149,4.149,0,0,0-1.371-.25,2.971,2.971,0,0,0-1.523.324,1.011,1.011,0,0,0-.539.91v.008a1.059,1.059,0,0,0,.281.777,1.678,1.678,0,0,0,.7.418,11.05,11.05,0,0,0,1.164.281A.527.527,0,0,0,26.8-6.7a.527.527,0,0,1,.063.012.91.91,0,0,1,.09.02.91.91,0,0,0,.09.02,9.5,9.5,0,0,1,1.8.512,2.8,2.8,0,0,1,1.207.969,3.051,3.051,0,0,1,.484,1.824v.016a3.312,3.312,0,0,1-.508,1.859,3.174,3.174,0,0,1-1.48,1.18A6.061,6.061,0,0,1,26.211.117ZM57.367-11.359h2.141V0H57.367Zm-6.219,0h2.141V0H51.148Zm.992,4.7h6.617V-4.6H52.14ZM84.577.117A4.43,4.43,0,0,1,82.4-.4a3.614,3.614,0,0,1-1.457-1.469,4.535,4.535,0,0,1-.516-2.2V-7.289a4.535,4.535,0,0,1,.516-2.2A3.614,3.614,0,0,1,82.4-10.957a4.43,4.43,0,0,1,2.176-.52,4.43,4.43,0,0,1,2.176.52A3.614,3.614,0,0,1,88.21-9.488a4.535,4.535,0,0,1,.516,2.2V-4.07a4.535,4.535,0,0,1-.516,2.2A3.614,3.614,0,0,1,86.753-.4,4.43,4.43,0,0,1,84.577.117Zm0-2.141a2.037,2.037,0,0,0,1.016-.246,1.682,1.682,0,0,0,.676-.7,2.217,2.217,0,0,0,.238-1.047V-7.344a2.217,2.217,0,0,0-.238-1.047,1.682,1.682,0,0,0-.676-.7,2.037,2.037,0,0,0-1.016-.246,2.037,2.037,0,0,0-1.016.246,1.682,1.682,0,0,0-.676.7,2.217,2.217,0,0,0-.238,1.047v3.328a2.217,2.217,0,0,0,.238,1.047,1.682,1.682,0,0,0,.676.7A2.037,2.037,0,0,0,84.577-2.023Zm26.047-4.445h3.633a1.288,1.288,0,0,0,.676-.176,1.2,1.2,0,0,0,.457-.5,1.588,1.588,0,0,0,.164-.734h0a1.664,1.664,0,0,0-.16-.746,1.174,1.174,0,0,0-.453-.5,1.3,1.3,0,0,0-.684-.176h-3.633v-2.062H114.2a3.9,3.9,0,0,1,1.871.434A3.082,3.082,0,0,1,117.327-9.7a3.656,3.656,0,0,1,.445,1.828h0a3.634,3.634,0,0,1-.445,1.824,3.063,3.063,0,0,1-1.254,1.215,3.928,3.928,0,0,1-1.871.43h-3.578Zm-.977-4.891h2.141V0h-2.141Zm29.593,4.891h3.633a1.288,1.288,0,0,0,.676-.176,1.2,1.2,0,0,0,.457-.5,1.588,1.588,0,0,0,.164-.734h0a1.664,1.664,0,0,0-.16-.746,1.174,1.174,0,0,0-.453-.5,1.3,1.3,0,0,0-.684-.176h-3.633v-2.062h3.578a3.9,3.9,0,0,1,1.871.434A3.082,3.082,0,0,1,145.944-9.7a3.656,3.656,0,0,1,.445,1.828h0a3.634,3.634,0,0,1-.445,1.824,3.063,3.063,0,0,1-1.254,1.215,3.928,3.928,0,0,1-1.871.43h-3.578Zm-.977-4.891H140.4V0h-2.141ZM168.944,0h-2.219V-11.359h2.219Zm21-11.359h2.617l4.227,8.7-.187.2v-8.906h2.047V-.008h-2.633L191.8-8.578l.188-.2V-.008h-2.047Zm37.937,5.008v2.219a4.69,4.69,0,0,1-.512,2.23A3.621,3.621,0,0,1,225.92-.41a4.355,4.355,0,0,1-2.172.527,4.663,4.663,0,0,1-2.191-.5,3.549,3.549,0,0,1-1.469-1.4,4.151,4.151,0,0,1-.52-2.1V-7.234a4.667,4.667,0,0,1,.512-2.227,3.627,3.627,0,0,1,1.449-1.488,4.355,4.355,0,0,1,2.172-.527,4.229,4.229,0,0,1,1.875.418,3.9,3.9,0,0,1,1.434,1.184,4.342,4.342,0,0,1,.777,1.773h-2.312a1.5,1.5,0,0,0-.387-.621,1.815,1.815,0,0,0-.633-.4,2.123,2.123,0,0,0-.754-.137,1.974,1.974,0,0,0-1,.25,1.7,1.7,0,0,0-.672.711,2.281,2.281,0,0,0-.238,1.063v3.352a1.8,1.8,0,0,0,.242.938,1.6,1.6,0,0,0,.688.625,2.311,2.311,0,0,0,1.031.219,2.068,2.068,0,0,0,1.012-.238,1.616,1.616,0,0,0,.668-.691,2.3,2.3,0,0,0,.234-1.07v-.187h-1.719V-6.352Zm43.164-.281H275a1.03,1.03,0,0,0,.578-.164,1.065,1.065,0,0,0,.387-.469,1.79,1.79,0,0,0,.145-.7h0a1.7,1.7,0,0,0-.137-.7,1.065,1.065,0,0,0-.387-.469A1.043,1.043,0,0,0,275-9.3h-3.953v-2.062h4.125a3.169,3.169,0,0,1,1.648.422,2.852,2.852,0,0,1,1.1,1.191,3.893,3.893,0,0,1,.391,1.785h0a3.893,3.893,0,0,1-.391,1.785,2.845,2.845,0,0,1-1.105,1.191,3.174,3.174,0,0,1-1.645.422h-4.125Zm-.852-4.734h2.141V0h-2.141Zm3.242,6.445,2.289-.359L278.787,0h-2.594Zm25.844-6.437h2.141V0h-2.141Zm.773,9.3h6.836V0h-6.836Zm0-4.609h5.977v2.063h-5.977Zm0-4.687h6.836V-9.3h-6.836Zm28.523,9.3H331.3a2.4,2.4,0,0,0,1.633-.508,1.812,1.812,0,0,0,.578-1.437V-7.352a1.812,1.812,0,0,0-.578-1.437A2.4,2.4,0,0,0,331.3-9.3h-2.727v-2.062h2.68a5.62,5.62,0,0,1,2.426.477,3.378,3.378,0,0,1,1.527,1.391,4.365,4.365,0,0,1,.523,2.2V-4.07a4.364,4.364,0,0,1-.5,2.141,3.437,3.437,0,0,1-1.512,1.422A5.445,5.445,0,0,1,331.247,0h-2.672Zm-1.078-9.3h2.141V0H327.5Zm29.156,0h2.141V0h-2.141Zm.773,9.3h6.836V0h-6.836Zm0-4.609H363.4v2.063h-5.977Zm0-4.687h6.836V-9.3h-6.836Zm27.445,0h2.141V0h-2.141Zm.781,4.789h5.82v2.063h-5.82Zm0-4.789h6.68V-9.3h-6.68ZM414.535,0h-2.219V-11.359h2.219Zm21-11.359h2.617l4.227,8.7-.187.2v-8.906h2.047V-.008h-2.633l-4.211-8.57.188-.2V-.008h-2.047Zm29.859,0h2.141V0h-2.141Zm.773,9.3H473V0h-6.836Zm0-4.609h5.977v2.063h-5.977Zm0-4.687H473V-9.3h-6.836Zm28.523,9.3h2.727a2.4,2.4,0,0,0,1.633-.508,1.812,1.812,0,0,0,.578-1.437V-7.352a1.812,1.812,0,0,0-.578-1.437,2.4,2.4,0,0,0-1.633-.508h-2.727v-2.062h2.68a5.62,5.62,0,0,1,2.426.477,3.378,3.378,0,0,1,1.527,1.391,4.365,4.365,0,0,1,.523,2.2V-4.07a4.364,4.364,0,0,1-.5,2.141,3.437,3.437,0,0,1-1.512,1.422A5.445,5.445,0,0,1,497.363,0h-2.672Zm-1.078-9.3h2.141V0h-2.141Z" transform="translate(-21.937 11.477)"/></g><path d="M2.482-8.474H3.777V0H2.482ZM-.127-9.229H6.386V-8H-.127Zm15.7,0h1.212V0H15.518V-6.913l.063.406L13.309-1.282h-.9l-2.272-5.1.063-.533V0H8.935V-9.229h1.212l2.71,6.094Z" transform="translate(820 101)"/></g></svg>