<svg xmlns="http://www.w3.org/2000/svg" width="611.235" height="688.871" viewBox="0 0 611.235 688.871"><defs><style>.a,.c,.g{fill:#fff;}.a,.b,.d,.f,.g,.h{stroke:#000;}.a,.b,.f,.g,.h{stroke-linecap:round;stroke-linejoin:round;}.a,.b,.d,.e{stroke-width:6px;}.b,.f,.h{fill:none;}.d{fill:#fe0;}.e{fill:#d7db1f;stroke:#707070;}.f{stroke-width:7px;}.g,.h{stroke-width:4px;}</style></defs><g transform="translate(16.01 -1897.919)"><g transform="translate(-462.998 1691.132)"><path class="a" d="M451,441.93S558.287,389.564,601.712,281l12.772,5.109S574.89,417.663,481.653,461.088" transform="translate(0 110.662)"/><path class="a" d="M574.889,326.524s-63.861,3.832-85.574,49.812S459.939,473.4,466.325,473.4s15.327-21.713,15.327-21.713L495.7,417.207s2.554,21.713,12.772,22.99,12.772,1.277,15.327-12.772,11.495-40.871,11.495-40.871a54.627,54.627,0,0,0,15.327,10.218c8.94,3.832,19.158-11.495,22.99-14.049s5.109,3.832,5.109,3.832,15.327,19.158,22.99,2.554,5.109,16.6,5.109,16.6-7.664,30.653,6.386,30.653-6.386,12.772,0,15.327,3.832,39.594,3.832,39.594L596.6,524.493s57.475-20.436,61.307-42.148-5.109-84.3-5.109-88.128-8.941-33.208-8.941-33.208,30.654,20.436,31.93,25.544,5.109,26.822,7.664,20.436,0-22.99,5.109-17.881S702.611,428.7,702.611,428.7l16.6,1.277s1.277,45.98,6.386,45.98,17.881-45.98,15.327-51.089S726.878,372.5,726.878,372.5l-26.822-38.317-33.208-14.049s24.267-14.049,28.1-12.772,16.6-12.772,16.6-12.772,21.713,34.485,24.267,39.594,17.881,3.832,17.881,3.832l12.772,8.941s-7.663-34.485-15.327-45.98-22.99-31.931-26.822-33.208-25.545-3.832-29.376-2.554-31.93,25.544-31.93,25.544-5.109-33.208-5.109-37.039-11.495-40.871-11.495-40.871-10.218-8.941-8.941,3.832,1.277,40.871,1.277,40.871l-25.544-33.208-29.376,3.832s2.554,8.941,6.386,14.049,12.772,20.436,12.772,20.436l-49.812-20.436S540.4,255,536.572,256.277s-26.822,20.435-34.485,30.653-30.653,38.317-30.653,38.317,3.832,16.6,15.327,2.555,34.485-29.376,34.485-29.376,5.109,2.555,3.832,10.218,33.208-12.772,39.594-12.772,7.663,7.663,7.663,7.663,3.832-1.277,10.218,7.663,2.554,15.327,2.554,15.327Z" transform="translate(20.438 0)"/><circle class="b" cx="10.856" cy="10.856" r="10.856" transform="translate(614.484 331.633)"/><circle class="b" cx="10.856" cy="10.856" r="10.856" transform="translate(624.702 353.346)"/><circle class="b" cx="10.856" cy="10.856" r="10.856" transform="translate(641.306 334.187)"/></g><g transform="translate(-194.702 1803)"><path class="c" d="M348.728,590.678,373.04,529.37l57.08-28.54-3.171-53.909-28.54,23.255s-13.741-14.8-13.741-17.969,7.4-60.251,7.4-60.251l25.369-8.456,26.426,21.141h22.2l2.114,10.57,11.627,4.228-4.228,25.369-13.741,1.057-2.114,38.053L502,488.146l70.821,40.167,1.057-53.909,22.2,69.764L502,533.6,463.944,641.415,418.492,646.7l-25.369-76.106L344.5,589.621" transform="translate(34.31 1.671)"/><path class="d" d="M399.951,526.691s93.019-57.08,98.3-41.224-27.483,75.049-95.133,121.558-99.361,25.369-86.676-5.285S385.153,536.2,385.153,536.2" transform="translate(0 112.168)"/><path class="b" d="M356.5,422.167s12.684-12.684,16.913-26.426S413.58,382,413.58,382l20.084,19.026h22.2L454.8,412.654l16.912,8.456-4.228,28.54-17.969,3.171L447.4,479.247l35.939,3.171,81.391,45.452-8.456-58.137" transform="translate(47.679 0)"/><path class="b" d="M397.167,393.522C394,392.465,364.4,411.492,364.4,416.777s-4.228,11.627-7.4,14.8" transform="translate(48.236 12.789)"/><path class="b" d="M392.768,405s-12.684,17.969-15.855,21.141S360,437.768,360,437.768" transform="translate(51.578 25.623)"/><path class="b" d="M380.268,560.619,347.5,510.939,383.439,475l23.255,60.251-7.4,100.418" transform="translate(37.652 103.607)"/><path class="b" d="M435.418,416.5l-5.285,40.167-51.794,31.711L335,579.282l39.11,46.509" transform="translate(23.727 38.435)"/><path class="b" d="M421,499.163l57.08,12.684H519.3L497.106,422" transform="translate(119.536 44.562)"/><path class="b" d="M470.576,459l-37,102.532L376.5,569.988" transform="translate(69.96 85.782)"/><path class="b" d="M390.228,402.184,393.4,389.5l10.57,10.57-9.513,16.913-8.456-7.4Z" transform="translate(80.544 8.355)"/><path class="b" d="M391.027,411l-14.8,24.312L372,451.167" transform="translate(64.947 32.308)"/><path class="b" d="M370.5,640.686l4.228-41.224,19.026-2.114L405.382,551.9l12.684-1.057,11.627,32.768,15.856-1.057L440.264,507.5" transform="translate(63.276 139.814)"/><line class="b" x1="5.285" y2="28.54" transform="translate(451.745 737.162)"/><line class="b" x2="5.285" y2="35.939" transform="translate(492.969 723.42)"/><line class="b" x2="2.114" y2="25.369" transform="translate(508.825 722.363)"/><path class="e" d="M405.5,401" transform="translate(102.268 21.167)"/><path class="b" d="M499.9,442.189c-8.23,13.443-31.842,18.927-50.014,7.8s-26.233-31.043-18-44.486,29.635-15.321,47.807-4.2S508.133,428.746,499.9,442.189Z" transform="translate(128.068 13.429)"/><path class="b" d="M446.939,409.513,423.684,400,411,401.057" transform="translate(108.395 20.053)"/><path class="b" d="M448.912,394S446.8,428.882,432,431" transform="translate(131.79 13.369)"/><path class="b" d="M451.127,395.5l2.515,27.895-12.028,3.816L439.5,445.18" transform="translate(140.146 15.04)"/></g><path class="f" d="M516,454.333,529.75,441.5l9.167,12.833,11.917-11L560,456.167" transform="translate(-139 1640.167)"/><path class="f" d="M516,451.533,526.75,441.5l7.167,10.033,9.317-8.6,7.167,10.033" transform="translate(-52 1560.167)"/><g transform="translate(-149.5 1902.609)"><path class="g" d="M509.132,554.127,639.6,530.568S622.656,558.7,599.76,558.33s-84.335,3.226-84.335,3.226Z" transform="translate(21.325 30.896)"/><path class="h" d="M550.7,570.54l-9.759-77.108s19.635,32.377,19.489,41.535S550.7,570.54,550.7,570.54Z" transform="translate(47.786 0)"/><path class="h" d="M493.5,543.5" transform="translate(8.32 41.655)"/><line class="h" x2="220.753" transform="translate(498.156 592.483)"/><line class="h" x2="41.22" transform="translate(483.5 604.391)"/><line class="h" x2="128.238" transform="translate(614.486 603.475)"/></g></g></svg>