<svg xmlns="http://www.w3.org/2000/svg" width="121.947" height="126.598" viewBox="0 0 121.947 126.598"><defs><style>.a,.b,.c,.d{fill:#fff;}.a,.b,.c,.d,.e{stroke:#000;stroke-miterlimit:10;}.a{stroke-width:5px;}.b,.c{stroke-width:4px;}.c,.d{stroke-linecap:round;}.d,.e{stroke-width:3px;}.e{fill:#fe0;fill-rule:evenodd;}</style></defs><g transform="translate(-1293.036 -1014.67) rotate(-40)"><g transform="translate(321.152 1622) rotate(17)"><path class="a" d="M86.727,46.461c0,19.245-10.922,35.757-26.484,42.811-5.188,2.35-10.892.76-16.879.76-4.858,0-9.529,2.034-13.889.456C12.337,84.284,0,66.916,0,46.461,0,20.8,19.414,0,43.364,0S86.727,20.8,86.727,46.461Z" transform="translate(0 19.696)"/><path class="b" d="M22.026,7.091c0,3-4.93,5.436-11.013,5.436S0,10.092,0,7.091,4.93,0,11.014,0,22.026,4.088,22.026,7.091Z" transform="translate(33.039 19.902)"/><path class="b" d="M12.927,8.547c-.9,1.626-4.472,1.371-7.985-.569S-.692,3.149.206,1.524,5.173-.742,8.685,1.2,13.826,6.922,12.927,8.547Z" transform="translate(51.558 19.352)"/><path class="b" d="M12.485,1.159C13.36,2.6,11.329,5.436,7.948,7.487S1.117,10.029.241,8.585.914,3.512,4.3,1.462,11.609-.285,12.485,1.159Z" transform="translate(24.337 19.028)"/><path class="c" d="M0,13.96,4.5,4.644,8.6,6.1,12.779,0" transform="translate(47.471 6.263)"/><path class="d" d="M17.667,0S24.733,28.267,0,48.182" transform="translate(59.676 53.63)"/><line class="c" x2="9.499" y2="19.902" transform="translate(34.554 0)"/></g><path class="e" d="M112.158,5.134l7.508,15.213,16.789,2.44L124.306,34.628l2.868,16.721-15.016-7.894L97.142,51.348l2.868-16.721L87.861,22.787l16.789-2.44Z" transform="translate(229.775 1666.738)"/></g></svg>