<svg xmlns="http://www.w3.org/2000/svg" width="632.245" height="379.479" viewBox="0 0 632.245 379.479"><defs><style>.a,.b,.c,.d,.f{fill:#fff;}.a,.b,.c,.d,.e,.f{stroke:#000;}.a,.b,.c{stroke-width:4px;}.b,.c,.d,.e,.f{stroke-miterlimit:10;}.c,.d{stroke-linecap:round;}.d,.e{stroke-width:3px;}.e{fill:#fe0;fill-rule:evenodd;}.f{stroke-width:5px;}.g{stroke:none;}.h{fill:none;}</style></defs><g transform="translate(-669 -2081.521)"><g class="a" transform="translate(1183 2104)"><circle class="g" cx="12" cy="12" r="12"/><circle class="h" cx="12" cy="12" r="10"/></g><g class="a" transform="translate(1055 2241)"><circle class="g" cx="9" cy="9" r="9"/><circle class="h" cx="9" cy="9" r="7"/></g><g class="a" transform="translate(1100 2241)"><circle class="g" cx="21" cy="21" r="21"/><circle class="h" cx="21" cy="21" r="19"/></g><g class="a" transform="translate(669 2443)"><circle class="g" cx="9" cy="9" r="9"/><circle class="h" cx="9" cy="9" r="7"/></g><g class="a" transform="translate(1153 2319)"><circle class="g" cx="8" cy="8" r="8"/><circle class="h" cx="8" cy="8" r="6"/></g><g transform="translate(662.949 454.941)"><g transform="translate(314.12 1622) rotate(17)"><path class="b" d="M67.9,36.374c0,15.066-8.551,27.994-20.734,33.516-4.062,1.84-8.527.6-13.214.6-3.8,0-7.46,1.592-10.873.357C9.659,65.985,0,52.388,0,36.374,0,16.285,15.2,0,33.949,0S67.9,16.285,67.9,36.374Z" transform="translate(0 15.42)"/><path class="b" d="M17.244,5.551c0,2.35-3.86,4.256-8.622,4.256S0,7.9,0,5.551,3.86,0,8.622,0,17.244,3.2,17.244,5.551Z" transform="translate(25.866 15.581)"/><path class="b" d="M10.121,6.691c-.7,1.273-3.5,1.074-6.251-.445S-.541,2.466.161,1.194,4.05-.581,6.8.938,10.824,5.419,10.121,6.691Z" transform="translate(40.365 15.151)"/><path class="b" d="M9.774.908c.685,1.131-.9,3.348-3.552,4.954S.874,7.852.188,6.721.716,2.75,3.363,1.144,9.088-.223,9.774.908Z" transform="translate(19.053 14.897)"/><path class="c" d="M0,10.929,3.52,3.636,6.736,4.778,10,0" transform="translate(37.165 4.904)"/><path class="d" d="M13.831,0S19.363,22.13,0,37.721" transform="translate(46.72 41.986)"/><line class="c" x2="7.437" y2="15.581" transform="translate(27.052 0)"/></g><path class="e" d="M106.883,5.134l5.878,11.91,13.144,1.91-9.511,9.27,2.245,13.09-11.756-6.18-11.756,6.18,2.245-13.09-9.511-9.27L101,17.044Z" transform="translate(223.506 1655.911)"/></g><g transform="translate(-191.847 1408.836) rotate(-48)"><g transform="translate(308.182 1622) rotate(17)"><path class="b" d="M52,27.855c0,11.538-6.548,21.438-15.879,25.667-3.111,1.409-6.53.456-10.12.456-2.913,0-5.713,1.219-8.327.274C7.4,50.532,0,40.12,0,27.855,0,12.471,11.639,0,26,0S52,12.471,52,27.855Z" transform="translate(0 11.809)"/><path class="b" d="M13.206,4.251c0,1.8-2.956,3.259-6.6,3.259S0,6.051,0,4.251,2.956,0,6.6,0,13.206,2.451,13.206,4.251Z" transform="translate(19.809 11.932)"/><path class="b" d="M7.751,5.124c-.538.975-2.681.822-4.787-.341S-.415,1.888.123.914,3.1-.445,5.207.718,8.289,4.15,7.751,5.124Z" transform="translate(30.912 11.603)"/><path class="b" d="M7.485.7c.524.866-.693,2.564-2.72,3.794S.67,6.013.144,5.147.548,2.106,2.575.876,6.96-.171,7.485.7Z" transform="translate(14.591 11.408)"/><path class="c" d="M0,8.37,2.7,2.785l2.462.875L7.661,0" transform="translate(28.461 3.755)"/><path class="d" d="M10.592,0A29.554,29.554,0,0,1,0,28.887" transform="translate(35.779 32.154)"/><line class="c" x2="5.695" y2="11.932" transform="translate(20.717 0)"/></g><path class="e" d="M102.428,5.134l4.5,9.121L117,15.718l-7.284,7.1,1.72,10.025-9-4.733-9,4.733,1.72-10.025-7.284-7.1,10.066-1.463Z" transform="translate(218.212 1646.767)"/></g><g transform="translate(-580.323 1319.202) rotate(-40)"><g transform="translate(321.152 1622) rotate(17)"><path class="f" d="M86.727,46.461c0,19.245-10.922,35.757-26.484,42.811-5.188,2.35-10.892.76-16.879.76-4.858,0-9.529,2.034-13.889.456C12.337,84.284,0,66.916,0,46.461,0,20.8,19.414,0,43.364,0S86.727,20.8,86.727,46.461Z" transform="translate(0 19.696)"/><path class="b" d="M22.026,7.091c0,3-4.93,5.436-11.013,5.436S0,10.092,0,7.091,4.93,0,11.014,0,22.026,4.088,22.026,7.091Z" transform="translate(33.039 19.902)"/><path class="b" d="M12.927,8.547c-.9,1.626-4.472,1.371-7.985-.569S-.692,3.149.206,1.524,5.173-.742,8.685,1.2,13.826,6.922,12.927,8.547Z" transform="translate(51.558 19.352)"/><path class="b" d="M12.485,1.159C13.36,2.6,11.329,5.436,7.948,7.487S1.117,10.029.241,8.585.914,3.512,4.3,1.462,11.609-.285,12.485,1.159Z" transform="translate(24.337 19.028)"/><path class="c" d="M0,13.96,4.5,4.644,8.6,6.1,12.779,0" transform="translate(47.471 6.263)"/><path class="d" d="M17.667,0S24.733,28.267,0,48.182" transform="translate(59.676 53.63)"/><line class="c" x2="9.499" y2="19.902" transform="translate(34.554 0)"/></g><path class="e" d="M112.158,5.134l7.508,15.213,16.789,2.44L124.306,34.628l2.868,16.721-15.016-7.894L97.142,51.348l2.868-16.721L87.861,22.787l16.789-2.44Z" transform="translate(229.775 1666.738)"/></g></g></svg>