<svg xmlns="http://www.w3.org/2000/svg" width="107" height="72.907" viewBox="0 0 107 72.907"><defs><style>.a{fill:#fe0;}.b{fill:none;}.b,.c{stroke:#000;stroke-miterlimit:10;stroke-width:2px;}.c{fill:#fff;}</style></defs><g transform="translate(-190 -4442)"><g transform="translate(168 4403)"><path class="a" d="M36.454,0A36.454,36.454,0,1,1,0,36.454,36.454,36.454,0,0,1,36.454,0Z" transform="translate(39 39)"/></g><g transform="translate(433.333 4074.732)"><g transform="translate(-195.948 376.268)"><path class="b" d="M-135.526,383.722c0,4.117-7.455,11.928-7.455,11.928s-7.455-7.811-7.455-11.928a7.455,7.455,0,0,1,7.455-7.454A7.455,7.455,0,0,1-135.526,383.722Z" transform="translate(150.436 -376.268)"/><path class="b" d="M-135.749,387.452a3.5,3.5,0,0,1-3.5,3.5,3.5,3.5,0,0,1-3.5-3.5,3.5,3.5,0,0,1,3.5-3.5A3.5,3.5,0,0,1-135.749,387.452Z" transform="translate(146.633 -380.072)"/></g><path class="b" d="M-141.9,456.973a2.075,2.075,0,0,1-2.075,2.075h-96.284a2.075,2.075,0,0,1-2.075-2.075v-9.684a2.075,2.075,0,0,1,2.075-2.075h100.85a2.075,2.075,0,0,1,2.075,2.075Z" transform="translate(0 -34.145)"/><path class="b" d="M-128.962,432.011a2.075,2.075,0,0,1-2.075,2.075h-43.993a2.075,2.075,0,0,1-2.075-2.075l2.905-7.47a2.075,2.075,0,0,1,2.075-2.075h36.937a2.075,2.075,0,0,1,2.075,2.075Z" transform="translate(-32.305 -22.879)"/><path class="b" d="M-215.1,473.444a5.4,5.4,0,0,1-5.4,5.4,5.4,5.4,0,0,1-5.4-5.4" transform="translate(-8.144 -48.126)"/><path class="b" d="M-73.128,473.444a5.4,5.4,0,0,1-5.4,5.4,5.4,5.4,0,0,1-5.395-5.4" transform="translate(-78.455 -48.126)"/><path class="b" d="M-233.5,457.018a1.937,1.937,0,0,1-1.937,1.937H-238.2a1.937,1.937,0,0,1-1.937-1.937h0a1.937,1.937,0,0,1,1.937-1.937h2.767a1.937,1.937,0,0,1,1.937,1.937Z" transform="translate(-1.086 -39.032)"/><path class="b" d="M-44.4,455.644a1.659,1.659,0,0,1-1.66,1.66h-2.213a1.66,1.66,0,0,1-1.66-1.66h0a1.66,1.66,0,0,1,1.66-1.66h2.213a1.66,1.66,0,0,1,1.66,1.66Z" transform="translate(-95.286 -38.489)"/><path class="b" d="M-177.1,445.762V456h37.075" transform="translate(-32.305 -34.417)"/><line class="b" x2="7.194" transform="translate(-174.547 414.665)"/><rect class="b" width="18.171" height="18.171" rx="5" transform="translate(-232.911 387.305)"/><rect class="b" width="6.393" height="6.393" rx="3.197" transform="translate(-226.854 391.692)"/><line class="c" y2="8.642" transform="translate(-226.854 393.468)"/><line class="c" y2="5.384" transform="translate(-224.499 405.139)"/></g></g></svg>