<svg xmlns="http://www.w3.org/2000/svg" width="78.418" height="80" viewBox="0 0 78.418 80"><defs><style>.a{fill:#fe0;}.b,.c{fill:none;stroke:#000;stroke-width:2px;}.b{stroke-miterlimit:10;}</style></defs><g transform="translate(-200 -4680)"><g transform="translate(158.333 4644.333)"><path class="a" d="M33.787,0A33.787,33.787,0,1,1,0,33.787,33.787,33.787,0,0,1,33.787,0Z" transform="translate(41.667 41.667)"/></g><g transform="translate(-40 4482.332)"><rect class="b" width="46.405" height="78" rx="5" transform="translate(253.582 198.669)"/><rect class="b" width="38.177" height="68.456" rx="5" transform="translate(257.696 203.441)"/><line class="b" x2="16.456" transform="translate(247 214.466)"/><line class="b" x2="25.342" transform="translate(288.468 265.15)"/><line class="b" x2="13.165" transform="translate(305.253 256.592)"/><path class="b" d="M303.933,283.078a1.3,1.3,0,0,1-1.3,1.3H280.65a1.3,1.3,0,0,1-1.3-1.3V268.709a1.3,1.3,0,0,1,1.3-1.3h27.179a1.3,1.3,0,0,1,1.3,1.3Z" transform="translate(-16.381 -34.806)"/><path class="b" d="M289.636,312.8a2.337,2.337,0,1,1-2.337-2.337A2.337,2.337,0,0,1,289.636,312.8Z" transform="translate(-19.221 -56.602)"/><path class="b" d="M318.741,312.8a2.337,2.337,0,1,1-2.337-2.337A2.337,2.337,0,0,1,318.741,312.8Z" transform="translate(-33.958 -56.602)"/><path class="c" d="M0,.346,29,0" transform="translate(263.144 236.066)"/><line class="b" x2="26.314" transform="translate(263.144 245.017)"/></g></g></svg>