<svg xmlns="http://www.w3.org/2000/svg" width="70" height="70" viewBox="0 0 70 70"><defs><style>.a,.c{fill:#fe0;}.b{fill:none;}.b,.c{stroke:#000;stroke-miterlimit:10;stroke-width:2px;}.d{fill-rule:evenodd;}</style></defs><g transform="translate(-1125 -4685)"><circle class="a" cx="35" cy="35" r="35" transform="translate(1125 4685)"/><g transform="translate(1137.714 4686)"><rect class="b" width="44.62" height="67.949" rx="12" transform="translate(0)"/><path class="c" d="M10.019,0h4.808A10.018,10.018,0,0,1,24.844,10.018V31.777A10.019,10.019,0,0,1,14.826,41.8H10.018A10.018,10.018,0,0,1,0,31.777V10.019A10.019,10.019,0,0,1,10.019,0Z" transform="translate(9.428 8.644)"/><g transform="translate(17.268 21.217)"><path class="d" d="M215.217,343.581h-4.453a.93.93,0,0,1-.2-.016.282.282,0,0,1-.236-.265c-.008-.4-.009-.8,0-1.206a.287.287,0,0,1,.272-.272,1.479,1.479,0,0,1,.184-.01h4.25l.03-.031a4.666,4.666,0,0,0-.315-.407,2.462,2.462,0,0,0-1.255-.638,6.1,6.1,0,0,0-1.37-.13c-.456,0-.912,0-1.368,0-.317,0-.439-.123-.44-.44q0-.622,0-1.245c0-.3.118-.42.416-.42h8.725c.3,0,.423.118.424.413q0,.474,0,.949c0,.29-.123.409-.414.41-.744,0-1.487,0-2.231,0h-.172c.028.05.045.084.065.115a3.52,3.52,0,0,1,.568,1.286c.023.107.068.142.181.14.53-.006,1.06,0,1.589,0,.32,0,.431.11.432.428s0,.624,0,.936c0,.287-.118.4-.4.406-.534,0-1.068,0-1.6,0-.093,0-.135.017-.154.12a3.933,3.933,0,0,1-1.362,2.389,4.975,4.975,0,0,1-2.2,1.041c-.233.051-.468.089-.716.136.022.029.041.057.063.081,1.124,1.292,2.252,2.581,3.37,3.879.485.564.947,1.146,1.421,1.719a.331.331,0,0,1,.076.393.358.358,0,0,1-.362.2q-.992,0-1.984,0a.415.415,0,0,1-.342-.158c-.965-1.137-1.922-2.28-2.9-3.405-.746-.859-1.516-1.7-2.282-2.538a.694.694,0,0,1-.208-.527c.014-.344,0-.69,0-1.035,0-.4.1-.494.493-.5.566-.006,1.134,0,1.7-.032a3.71,3.71,0,0,0,1.777-.524A2.046,2.046,0,0,0,215.217,343.581Z" transform="translate(-210.316 -338.499)"/></g></g></g></svg>