<svg xmlns="http://www.w3.org/2000/svg" width="72.907" height="72.907" viewBox="0 0 72.907 72.907"><defs><style>.a{fill:#fe0;}.b{fill:none;stroke:#000;stroke-linecap:round;stroke-linejoin:round;stroke-width:2px;}</style></defs><g transform="translate(-1109 -4442)"><g transform="translate(1070 4403)"><path class="a" d="M36.454,0A36.454,36.454,0,1,1,0,36.454,36.454,36.454,0,0,1,36.454,0Z" transform="translate(39 39)"/></g><g transform="translate(1087.422 4052.5)"><path class="b" d="M90.156,447.13c0,4.06-3.955,7.352-8.834,7.352H40.834c-4.879,0-8.834-3.292-8.834-7.352V414.352c0-4.06,3.955-7.352,8.834-7.352H81.323c4.879,0,8.834,3.292,8.834,7.352Z" transform="translate(0 -2.243)"/><path class="b" d="M52.147,423.733a4.233,4.233,0,0,1-4.233,4.233H44.233A4.233,4.233,0,0,1,40,423.733h0a4.233,4.233,0,0,1,4.233-4.233h3.681a4.233,4.233,0,0,1,4.233,4.233Z" transform="translate(-2.111 -5.541)"/><path class="b" d="M74.9,423.733a4.233,4.233,0,0,1-4.233,4.233H66.983a4.233,4.233,0,0,1-4.233-4.233h0a4.233,4.233,0,0,1,4.233-4.233h3.681a4.233,4.233,0,0,1,4.233,4.233Z" transform="translate(-8.113 -5.541)"/><path class="b" d="M97.4,423.733a4.233,4.233,0,0,1-4.233,4.233H89.483a4.233,4.233,0,0,1-4.233-4.233h0a4.233,4.233,0,0,1,4.233-4.233h3.681a4.233,4.233,0,0,1,4.233,4.233Z" transform="translate(-14.05 -5.541)"/><path class="b" d="M52.147,440.733a4.233,4.233,0,0,1-4.233,4.233H44.233A4.233,4.233,0,0,1,40,440.733h0a4.233,4.233,0,0,1,4.233-4.233h3.681a4.233,4.233,0,0,1,4.233,4.233Z" transform="translate(-2.111 -10.026)"/><path class="b" d="M74.9,440.733a4.233,4.233,0,0,1-4.233,4.233H66.983a4.233,4.233,0,0,1-4.233-4.233h0a4.233,4.233,0,0,1,4.233-4.233h3.681a4.233,4.233,0,0,1,4.233,4.233Z" transform="translate(-8.113 -10.026)"/><line class="b" y2="7.834" transform="translate(46.716 398.822)"/><line class="b" y2="8.466" transform="translate(75.433 398.5)"/><path class="b" d="M79.589,452.653l4.065,5.153L95.506,447.5" transform="translate(-12.556 -12.928)"/></g></g></svg>